<svg id="Layer_1" data-name="Layer 1" xmlns="http://www.w3.org/2000/svg" viewBox="0 0 13.31 21.88">
  <defs>
    <style>
      .cls-1 {
        fill: #000;
      }
    </style>
  </defs>
  <title>chevrons</title>
  <path class="cls-1" d="M1.66.29.29,1.66a1,1,0,0,0,0,1.41l7.17,7.16a1,1,0,0,1,0,1.42L.29,18.81a1,1,0,0,0,0,1.42l1.37,1.36a1,1,0,0,0,1.41,0L13,11.65a1,1,0,0,0,0-1.42L3.07.29A1,1,0,0,0,1.66.29Z"/>
  <path class="cls-1" d="M1.66.29.29,1.66a1,1,0,0,0,0,1.41l7.17,7.16a1,1,0,0,1,0,1.42L.29,18.81a1,1,0,0,0,0,1.42l1.37,1.36a1,1,0,0,0,1.41,0L13,11.65a1,1,0,0,0,0-1.42L3.07.29A1,1,0,0,0,1.66.29Z"/>
</svg>
